<mxfile host="app.diagrams.net" modified="2023-02-09T09:29:12.799Z" agent="5.0 (Macintosh; Intel Mac OS X 10_15_7) AppleWebKit/537.36 (KHTML, like Gecko) Chrome/109.0.0.0 Safari/537.36" etag="hjMJcy2bkW3YylmPMalU" version="20.8.18" type="github">
  <diagram id="yP5Dd5xW8ltooJtiMu5y" name="第 1 页">
    <mxGraphModel dx="954" dy="625" grid="1" gridSize="10" guides="1" tooltips="1" connect="1" arrows="1" fold="1" page="1" pageScale="1" pageWidth="827" pageHeight="1169" math="0" shadow="0">
      <root>
        <mxCell id="0" />
        <mxCell id="1" parent="0" />
        <mxCell id="fD011ewxvYoqEtCS83Xk-1" value="" style="shape=datastore;whiteSpace=wrap;html=1;" parent="1" vertex="1">
          <mxGeometry x="50" y="210" width="400" height="180" as="geometry" />
        </mxCell>
        <mxCell id="fD011ewxvYoqEtCS83Xk-2" value="" style="shape=datastore;whiteSpace=wrap;html=1;" parent="1" vertex="1">
          <mxGeometry x="520" y="210" width="170" height="180" as="geometry" />
        </mxCell>
        <mxCell id="fD011ewxvYoqEtCS83Xk-3" value="WMS2.0库" style="text;html=1;strokeColor=none;fillColor=none;align=center;verticalAlign=middle;whiteSpace=wrap;rounded=0;" parent="1" vertex="1">
          <mxGeometry x="220" y="210" width="60" height="30" as="geometry" />
        </mxCell>
        <mxCell id="fD011ewxvYoqEtCS83Xk-4" value="WMS3.0库" style="text;html=1;strokeColor=none;fillColor=none;align=center;verticalAlign=middle;whiteSpace=wrap;rounded=0;" parent="1" vertex="1">
          <mxGeometry x="575" y="210" width="60" height="30" as="geometry" />
        </mxCell>
        <mxCell id="fD011ewxvYoqEtCS83Xk-5" value="WMS2.0表" style="swimlane;whiteSpace=wrap;html=1;" parent="1" vertex="1">
          <mxGeometry x="80" y="290" width="100" height="60" as="geometry" />
        </mxCell>
        <mxCell id="fD011ewxvYoqEtCS83Xk-6" value="WMS3.0表" style="swimlane;whiteSpace=wrap;html=1;" parent="1" vertex="1">
          <mxGeometry x="320" y="290" width="100" height="60" as="geometry" />
        </mxCell>
        <mxCell id="fD011ewxvYoqEtCS83Xk-7" value="WMS3.0表" style="swimlane;whiteSpace=wrap;html=1;" parent="1" vertex="1">
          <mxGeometry x="560" y="290" width="100" height="60" as="geometry" />
        </mxCell>
        <mxCell id="fD011ewxvYoqEtCS83Xk-10" value="" style="endArrow=classic;html=1;rounded=0;exitX=1;exitY=0.5;exitDx=0;exitDy=0;entryX=0;entryY=0.5;entryDx=0;entryDy=0;" parent="1" source="fD011ewxvYoqEtCS83Xk-5" target="fD011ewxvYoqEtCS83Xk-6" edge="1">
          <mxGeometry width="50" height="50" relative="1" as="geometry">
            <mxPoint x="390" y="360" as="sourcePoint" />
            <mxPoint x="440" y="310" as="targetPoint" />
          </mxGeometry>
        </mxCell>
        <mxCell id="fD011ewxvYoqEtCS83Xk-11" value="wms-rt" style="text;html=1;strokeColor=none;fillColor=none;align=center;verticalAlign=middle;whiteSpace=wrap;rounded=0;" parent="1" vertex="1">
          <mxGeometry x="220" y="290" width="60" height="30" as="geometry" />
        </mxCell>
        <mxCell id="fD011ewxvYoqEtCS83Xk-12" value="" style="endArrow=classic;startArrow=classic;html=1;rounded=0;entryX=0;entryY=0.5;entryDx=0;entryDy=0;exitX=1;exitY=0.5;exitDx=0;exitDy=0;" parent="1" source="fD011ewxvYoqEtCS83Xk-6" target="fD011ewxvYoqEtCS83Xk-7" edge="1">
          <mxGeometry width="50" height="50" relative="1" as="geometry">
            <mxPoint x="390" y="360" as="sourcePoint" />
            <mxPoint x="440" y="310" as="targetPoint" />
          </mxGeometry>
        </mxCell>
        <mxCell id="fD011ewxvYoqEtCS83Xk-13" value="otter" style="text;html=1;strokeColor=none;fillColor=none;align=center;verticalAlign=middle;whiteSpace=wrap;rounded=0;" parent="1" vertex="1">
          <mxGeometry x="455" y="290" width="60" height="30" as="geometry" />
        </mxCell>
        <mxCell id="E8d9UjeHquu0AwspJz34-1" value="" style="rounded=0;whiteSpace=wrap;html=1;" vertex="1" parent="1">
          <mxGeometry x="100" y="530" width="300" height="140" as="geometry" />
        </mxCell>
        <mxCell id="E8d9UjeHquu0AwspJz34-2" value="" style="html=1;shadow=0;dashed=0;align=center;verticalAlign=middle;shape=mxgraph.arrows2.arrow;dy=0;dx=10;notch=10;rotation=90;" vertex="1" parent="1">
          <mxGeometry x="470" y="600" width="200" height="30" as="geometry" />
        </mxCell>
        <mxCell id="E8d9UjeHquu0AwspJz34-3" value="切换3.0" style="text;html=1;strokeColor=none;fillColor=none;align=center;verticalAlign=middle;whiteSpace=wrap;rounded=0;" vertex="1" parent="1">
          <mxGeometry x="540" y="480" width="60" height="30" as="geometry" />
        </mxCell>
        <mxCell id="E8d9UjeHquu0AwspJz34-4" value="&lt;div&gt;SELECT * FROM	tableName WHERE&lt;/div&gt;&lt;div&gt;create_time &amp;gt; &#39;开始时间&#39;&amp;nbsp;&lt;/div&gt;&lt;div&gt;AND create_time &amp;lt; NOW()&amp;nbsp;&lt;/div&gt;&lt;div style=&quot;&quot;&gt;AND `status` != &#39;100&#39;;&lt;/div&gt;" style="text;html=1;strokeColor=none;fillColor=none;align=left;verticalAlign=middle;whiteSpace=wrap;rounded=0;" vertex="1" parent="1">
          <mxGeometry x="145" y="590" width="210" height="70" as="geometry" />
        </mxCell>
        <mxCell id="E8d9UjeHquu0AwspJz34-5" value="" style="rounded=0;whiteSpace=wrap;html=1;" vertex="1" parent="1">
          <mxGeometry x="100" y="530" width="300" height="50" as="geometry" />
        </mxCell>
      </root>
    </mxGraphModel>
  </diagram>
</mxfile>
